<?xml version="1.0" standalone="no"?>
<!DOCTYPE svg PUBLIC "-//W3C//DTD SVG 20010904//EN"
 "http://www.w3.org/TR/2001/REC-SVG-20010904/DTD/svg10.dtd">
<svg version="1.0" xmlns="http://www.w3.org/2000/svg"
 width="700.000000pt" height="700.000000pt" viewBox="0 0 700.000000 700.000000"
 preserveAspectRatio="xMidYMid meet">
<metadata>
Created by potrace 1.14, written by Peter Selinger 2001-2017
</metadata>
<g transform="translate(0.000000,700.000000) scale(0.100000,-0.100000)"
fill="#000000" stroke="none">
<path d="M3659 6996 c-2 -2 -40 -6 -84 -9 -108 -8 -226 -24 -330 -43 -11 -3
-33 -7 -50 -9 -127 -23 -464 -119 -560 -160 -16 -7 -48 -20 -70 -28 -125 -47
-390 -179 -505 -252 -119 -75 -192 -124 -265 -179 -414 -309 -736 -675 -986
-1122 -38 -68 -69 -125 -69 -128 0 -3 -20 -47 -45 -98 -138 -288 -262 -712
-290 -998 -3 -30 -8 -60 -10 -67 -25 -74 -25 -661 0 -813 2 -14 7 -45 10 -70
20 -163 76 -410 135 -595 30 -93 118 -323 139 -363 5 -9 35 -69 66 -132 301
-610 814 -1147 1416 -1483 344 -192 735 -332 1094 -391 55 -10 111 -19 125
-21 14 -3 56 -7 95 -11 38 -4 74 -9 79 -12 15 -9 497 -10 586 -2 47 5 108 11
135 13 43 4 109 14 215 32 197 34 518 124 655 184 11 5 59 25 108 45 390 163
780 428 1102 752 239 240 291 320 266 406 -29 97 -104 133 -229 112 -167 -29
-285 -39 -487 -39 -150 0 -340 11 -355 20 -3 1 -27 6 -53 9 -331 45 -723 191
-1032 385 -242 152 -520 398 -689 611 -199 251 -354 535 -461 845 -36 107 -83
289 -99 390 -22 143 -22 144 -32 265 -42 555 81 1098 361 1586 37 66 70 121
74 124 3 3 19 25 35 50 28 44 139 190 180 239 74 86 300 300 393 371 131 101
123 96 265 184 93 59 117 78 134 113 52 102 -13 220 -132 238 -25 3 -54 8 -64
10 -32 6 -84 13 -145 20 -33 4 -71 9 -85 12 -28 5 -536 13 -541 9z"/>
</g>
</svg>
